<?xml version="1.0" standalone="no"?><!DOCTYPE svg PUBLIC "-//W3C//DTD SVG 1.1//EN" "http://www.w3.org/Graphics/SVG/1.1/DTD/svg11.dtd"><svg t="1647249687315" class="icon" viewBox="0 0 1024 1024" version="1.1" xmlns="http://www.w3.org/2000/svg" p-id="2836" xmlns:xlink="http://www.w3.org/1999/xlink" width="200" height="200"><defs><style type="text/css"></style></defs><path d="M893.538462 364.307692C888.615385 172.307692 731.076923 24.615385 539.076923 29.538462 396.307692 29.538462 273.230769 123.076923 224 256c-4.923077 14.769231 4.923077 24.615385 14.769231 29.538462 14.769231 4.923077 24.615385-4.923077 29.538461-14.769231C322.461538 118.153846 494.769231 39.384615 647.384615 93.538462c113.230769 39.384615 192 147.692308 196.923077 270.76923 0 142.769231-103.384615 265.846154-246.153846 285.538462-4.923077 0-14.769231 4.923077-19.692308 9.846154-4.923077 4.923077-4.923077 14.769231 0 19.692307 9.846154 24.615385 9.846154 44.307692 9.846154 68.923077-4.923077 113.230769-103.384615 201.846154-211.692307 192-103.384615-4.923077-187.076923-88.615385-192-192 0-14.769231-9.846154-24.615385-24.615385-24.615384s-24.615385 14.769231-24.615385 29.538461c4.923077 137.846154 123.076923 246.153846 265.846154 241.230769 132.923077-4.923077 236.307692-113.230769 241.230769-241.230769 0-19.692308 0-39.384615-4.923076-59.076923 147.692308-39.384615 256-177.230769 256-329.846154z" fill="#1296db" p-id="2837"></path><path d="M726.153846 344.615385c-4.923077-49.230769-24.615385-93.538462-59.076923-128-44.307692-44.307692-113.230769-64-172.307692-44.307693-68.923077 14.769231-113.230769 68.923077-128 132.923077-4.923077 64 19.692308 128 78.769231 162.461539l9.846153 4.923077c4.923077 4.923077 14.769231 14.769231 14.769231 19.692307s4.923077 4.923077-4.923077 9.846154c-4.923077 4.923077-14.769231 4.923077-24.615384 4.923077-44.307692-14.769231-98.461538-4.923077-132.923077 34.461539-34.461538 44.307692-49.230769 103.384615-49.23077 157.538461 0 34.461538 14.769231 68.923077 39.384616 88.615385 9.846154 4.923077 24.615385 9.846154 39.384615 9.846154 9.846154 0 14.769231 0 24.615385-4.923077 29.538462-9.846154 59.076923-29.538462 73.846154-59.076923l14.76923-29.538462c14.769231-29.538462 19.692308-49.230769 39.384616-54.153846h24.615384c59.076923-9.846154 108.307692-49.230769 132.923077-98.461539 0-4.923077 4.923077-4.923077 4.923077-9.846153 0-9.846154-4.923077-19.692308-14.76923-19.692308-9.846154-4.923077-24.615385 0-34.461539 9.846154-19.692308 34.461538-59.076923 64-98.461538 68.923077-9.846154 0-19.692308 0-29.538462 4.923077-34.461538 14.769231-59.076923 44.307692-68.923077 83.692307l-14.769231 29.538462c-9.846154 14.769231-24.615385 29.538462-44.307692 34.461538h-19.692308c-9.846154-19.692308-14.769231-39.384615-14.76923-54.153846 0-44.307692 9.846154-93.538462 34.461538-128 19.692308-19.692308 49.230769-29.538462 73.846154-19.692308 24.615385 9.846154 49.230769 4.923077 68.923077-4.923077 24.615385-14.769231 34.461538-44.307692 24.615384-68.923076-4.923077-24.615385-19.692308-34.461538-34.461538-44.307693l-9.846154-4.923077c-39.384615-24.615385-54.153846-68.923077-49.230769-113.230769 9.846154-44.307692 39.384615-83.692308 83.692308-98.461538 44.307692-14.769231 93.538462 0 128 34.461538 24.615385 29.538462 39.384615 64 44.307692 98.461539v19.692307c0 14.769231 4.923077 24.615385 19.692308 29.538462 9.846154 0 19.692308-4.923077 29.538461-14.769231v-9.846154V344.615385z" fill="#1296db" p-id="2838"></path><path d="M696.615385 398.769231c-14.769231 0-24.615385-14.769231-24.615385-24.615385v-19.692308c-4.923077-34.461538-19.692308-68.923077-44.307692-98.461538-29.538462-39.384615-78.769231-49.230769-123.076923-39.384615-44.307692 14.769231-78.769231 49.230769-88.615385 98.461538-4.923077 44.307692 14.769231 88.615385 49.230769 113.230769l9.846154 4.923077c19.692308 4.923077 34.461538 19.692308 44.307692 39.384616 9.846154 24.615385 0 54.153846-24.615384 68.923077-19.692308 14.769231-44.307692 14.769231-68.923077 4.923076-24.615385-9.846154-54.153846 0-73.846154 19.692308-29.538462 39.384615-39.384615 88.615385-39.384615 132.923077 0 14.769231 4.923077 34.461538 19.692307 44.307692 4.923077 4.923077 14.769231 4.923077 24.615385 4.923077 19.692308-4.923077 34.461538-19.692308 39.384615-34.461538l14.769231-29.538462c9.846154-34.461538 34.461538-68.923077 68.923077-83.692307 9.846154 0 19.692308-4.923077 29.538462-4.923077h9.846153c39.384615-9.846154 78.769231-34.461538 98.461539-68.923077 4.923077-9.846154 19.692308-14.769231 34.461538-9.846154 9.846154 4.923077 14.769231 14.769231 14.769231 19.692308 29.538462-39.384615 49.230769-83.692308 59.076923-132.923077v-24.615385c-4.923077 14.769231-19.692308 19.692308-29.538461 19.692308z" fill="#1296db" p-id="2839"></path></svg>